<svg width="18" height="18" viewBox="0 0 18 18" fill="none" xmlns="http://www.w3.org/2000/svg">
<g opacity="0.6">
<path d="M16.2524 10.7249L15.9524 14.4749C15.8399 15.6224 15.7499 16.4999 13.7174 16.4999H4.28245C2.24995 16.4999 2.15995 15.6224 2.04745 14.4749L1.74745 10.7249C1.68745 10.1024 1.88245 9.52494 2.23495 9.08244C2.24245 9.07494 2.24245 9.07494 2.24995 9.06744C2.66245 8.56494 3.28495 8.24994 3.98245 8.24994H14.0174C14.7149 8.24994 15.3299 8.56494 15.7349 9.05244C15.7424 9.05994 15.7499 9.06744 15.7499 9.07494C16.1174 9.51744 16.3199 10.0949 16.2524 10.7249Z" stroke="white" stroke-width="1.5" stroke-miterlimit="10"/>
<path d="M2.62506 8.57246V4.70996C2.62506 2.15996 3.26256 1.52246 5.81256 1.52246H6.76506C7.71756 1.52246 7.93506 1.80746 8.29506 2.28746L9.24756 3.56246C9.48756 3.87746 9.63006 4.07246 10.2676 4.07246H12.1801C14.7301 4.07246 15.3676 4.70996 15.3676 7.25996V8.60246" stroke="white" stroke-width="1.5" stroke-miterlimit="10" stroke-linecap="round" stroke-linejoin="round"/>
<path d="M7.07257 12.7499H10.9276" stroke="white" stroke-width="1.5" stroke-miterlimit="10" stroke-linecap="round" stroke-linejoin="round"/>
</g>
</svg>
