<svg width="41" height="57" viewBox="0 0 41 57" fill="none" xmlns="http://www.w3.org/2000/svg">
<path fill-rule="evenodd" clip-rule="evenodd" d="M19.2442 0.136933C18.6834 0.338683 17.8588 0.921072 16.6872 1.94256C11.2515 6.68178 7.77668 12.9494 6.69533 19.9648C6.55124 20.8993 6.47663 22.0021 6.43973 23.7415L6.38759 26.1982L4.36107 28.2538C3.12199 29.5105 2.15044 30.5897 1.86115 31.0306C0.0635463 33.7695 -0.458377 37.1007 0.411094 40.2866C0.638314 41.1191 3.32815 47.3475 3.58776 47.6419C4.0072 48.1179 4.65777 48.2319 5.15573 47.9169C5.32118 47.8122 6.90049 46.3236 8.6653 44.6087C10.4301 42.8939 11.9006 41.4906 11.933 41.4904C11.9655 41.4901 12.2642 41.841 12.5968 42.2701C12.9294 42.6993 13.6499 43.5453 14.1979 44.1502L15.1941 45.2501L14.9636 45.6512C13.8623 47.5674 13.9218 49.9322 15.1179 51.7826C15.4858 52.3517 19.1684 56.084 19.723 56.4497C20.0732 56.6807 20.7214 56.6807 21.0716 56.4497C21.6261 56.084 25.3088 52.3517 25.6767 51.7826C26.873 49.9319 26.9323 47.5629 25.8303 45.6512L25.5991 45.2501L26.5201 44.2377C27.0266 43.6809 27.7469 42.8348 28.1208 42.3576C28.4946 41.8804 28.8276 41.4899 28.8607 41.4899C28.8939 41.4899 30.3648 42.8928 32.1295 44.6076C33.8942 46.3224 35.4734 47.8112 35.6389 47.9162C36.1364 48.2321 36.7898 48.1177 37.2054 47.6419C37.5278 47.273 40.195 41.0154 40.4562 40.0151C41.0819 37.6191 40.8177 34.8055 39.75 32.4946C39.1204 31.1318 38.536 30.386 36.4228 28.2487L34.3854 26.1881L34.3853 24.2879C34.385 19.586 33.4392 15.5533 31.3291 11.2575C29.5291 7.59276 26.8668 4.22679 23.6562 1.5564C22.1631 0.314618 21.6232 0.0452835 20.5477 0.00587609C19.9474 -0.0160838 19.5619 0.0226217 19.2442 0.136933ZM21.3499 2.91782C21.8503 3.15917 23.84 4.9674 24.8759 6.12235C28.4401 10.096 30.6881 14.7563 31.585 20.0314C31.8562 21.6261 31.9619 25.3086 31.7843 26.977C31.1438 32.9968 28.5295 38.5778 24.2706 43.0171L23.3308 43.9967H20.3954H17.4601L16.6806 43.1695C11.7525 37.9392 8.91599 30.9651 8.91599 24.0786C8.91599 22.0711 9.03962 20.8086 9.42397 18.8898C10.246 14.7865 12.1602 10.7435 14.8992 7.32533C16.3403 5.52683 18.9608 3.04256 19.6677 2.80451C20.1094 2.6558 20.9196 2.71035 21.3499 2.91782ZM18.5804 16.319C16.6213 16.8326 14.966 18.1788 14.0773 19.9812C13.5947 20.9597 13.4004 21.8112 13.4021 22.9393C13.405 24.8313 13.9875 26.2072 15.3807 27.6133C16.125 28.3644 16.4377 28.6006 17.1384 28.9414C18.3491 29.5301 19.0835 29.7012 20.3973 29.7012C22.2897 29.7012 23.8874 29.0897 25.1797 27.8706C26.6986 26.4378 27.3895 24.8979 27.3925 22.9393C27.3964 20.3428 25.9845 18.0676 23.6197 16.8594C22.1741 16.1208 20.1598 15.9048 18.5804 16.319ZM21.1352 18.4317C24.1846 18.9266 25.9123 22.0834 24.6214 24.8017C22.9477 28.326 17.8469 28.326 16.1732 24.8017C15.5468 23.4826 15.5956 22.0299 16.3109 20.7083C16.8893 19.6393 18.3131 18.6473 19.5694 18.4379C20.3055 18.3153 20.4153 18.3149 21.1352 18.4317ZM7.28815 31.3623C7.82311 33.5578 8.45323 35.2334 9.58812 37.479L10.5258 39.334L7.79062 42.0123C6.28632 43.4854 5.02869 44.6925 4.996 44.6946C4.86514 44.7034 3.26387 40.8769 3.02542 39.9858C2.67146 38.6628 2.65171 36.5574 2.981 35.2353C3.4574 33.3223 4.42404 31.6492 5.88633 30.2064C6.60468 29.4978 6.76893 29.3785 6.82137 29.5273C6.85637 29.6265 7.06644 30.4523 7.28815 31.3623ZM35.5701 30.8933C36.6531 32.152 37.4114 33.6214 37.816 35.2455C38.1428 36.5568 38.1219 38.6675 37.7692 39.9858C37.5307 40.8769 35.9295 44.7034 35.7986 44.6946C35.7659 44.6925 34.5073 43.4854 33.0016 42.0123L30.2641 39.334L31.2046 37.479C32.5115 34.9009 33.2821 32.6819 33.9314 29.6263L33.9913 29.3445L34.5143 29.8091C34.8019 30.0648 35.277 30.5527 35.5701 30.8933ZM23.6978 46.9297C24.0821 47.7172 24.2097 48.4876 24.0705 49.1806C23.8577 50.2399 23.6259 50.5714 21.9689 52.1861L20.4078 53.7071L18.9799 52.3551C17.3762 50.8364 17.0115 50.3434 16.7712 49.3702C16.5719 48.5622 16.6734 47.7937 17.0931 46.936L17.3537 46.4033H20.3973H23.4409L23.6978 46.9297Z" fill="#A569E5"/>
</svg>
